<svg xmlns="http://www.w3.org/2000/svg" xmlns:xlink="http://www.w3.org/1999/xlink" viewBox="0,0,256,256" width="50px" height="50px"><g fill="#ff2bc3" fill-rule="nonzero" stroke="none" stroke-width="1" stroke-linecap="butt" stroke-linejoin="miter" stroke-miterlimit="10" stroke-dasharray="" stroke-dashoffset="0" font-family="none" font-weight="none" font-size="none" text-anchor="none" style="mix-blend-mode: normal"><g transform="scale(5.12,5.12)"><path d="M1,12c-0.35547,0 -0.69531,0.19141 -0.875,0.5c-0.17969,0.30859 -0.17578,0.69141 0,1l6.53125,11.4375l5.25,-9.15625l-1.4375,-2.40625c-0.51953,-0.85547 -1.46875,-1.375 -2.46875,-1.375zM16.96875,12c-0.35937,0 -0.69531,0.1875 -0.875,0.5l-8.03125,14c-0.17578,0.30859 -0.17578,0.69141 0,1l6.59375,11.5c1.0625,1.85156 3.05469,3 5.1875,3h2.375l4.40625,-8h-5.5625l-3.9375,-7l8.59375,-15zM28.03125,12l-4.59375,8h5.5l3.90625,6.96875l0.09375,0.03125l-8.4375,15h8.5c0.35938,0 0.69531,-0.1875 0.875,-0.5l8.03125,-14c0.17969,-0.30859 0.17578,-0.69141 0,-1l-6.59375,-11.5c-1.05859,-1.85156 -3.05469,-3 -5.1875,-3zM43.34375,29.03125l-5.25,9.15625l1.4375,2.40625c0.51953,0.85547 1.47266,1.375 2.46875,1.375h7c0.35547,0 0.69531,-0.19141 0.875,-0.5c0.17969,-0.30859 0.17578,-0.69141 0,-1z"></path></g></g></svg>